<svg width="831" height="554" viewBox="0 0 831 554" fill="none" xmlns="http://www.w3.org/2000/svg">
<path d="M189.21 453.84C180.39 460.501 169.642 464.11 158.59 464.12C136.59 464.12 115 449.64 115 420.78C115 393.16 134.75 376.4 158.85 376.4C169.4 376.4 180.32 379.66 188.07 385.56L179.81 399.27C174.02 395.554 167.299 393.547 160.42 393.48C145.52 393.48 134.56 404.24 134.56 420.22C134.56 436.2 145.37 447.01 160.21 447.01C167.185 446.943 173.985 444.821 179.76 440.91L189.21 453.84Z" fill="#01E590"/>
<path d="M196.67 420.32C196.67 394.15 215.67 376.41 240.42 376.41C265.04 376.41 284.08 393.89 284.08 420.07C284.08 446.25 264.89 464.12 240.22 464.12C215.55 464.12 196.67 446.44 196.67 420.32ZM264.32 420.17C264.32 404.65 254.08 393.69 240.37 393.69C226.66 393.69 216.27 404.6 216.27 420.27C216.27 435.79 226.51 447.01 240.27 447.01C254.03 447.01 264.32 435.79 264.32 420.17Z" fill="#01E590"/>
<path d="M363.81 450.37C357.34 459.53 347 464.13 335.62 464.13C313.33 464.13 296.68 446.6 296.68 420.27C296.68 396.27 310.74 376.41 335.62 376.41C345.96 376.41 355.69 379.98 361.94 388.15V340.62L381.55 337V462.42H365.49L363.81 450.37ZM362.57 420.01C362.57 404.91 353.67 393.69 339.45 393.69C325.53 393.69 316.33 404.39 316.33 420.27C316.33 436.72 326.16 447.01 339.76 447.01C355.1 447.01 362.6 433.98 362.6 420.01H362.57Z" fill="#01E590"/>
<path d="M442.46 464.12C418.62 464.12 399.07 448.92 399.07 420.78C399.07 393.42 417.74 376.4 441.27 376.4C465.79 376.4 481.04 394.76 481.04 418.81C481.039 421.23 480.902 423.647 480.63 426.05H418.72C420.12 439.81 429.72 448.14 443.72 448.14C452.025 448.064 460.086 445.327 466.72 440.33L475.56 452.48C467.29 459.79 455.18 464.12 442.46 464.12ZM461.96 412.76C460.96 401.76 453.96 392.54 441.22 392.54C429.32 392.54 420.74 400.61 418.98 412.76H461.96Z" fill="#01E590"/>
<path d="M566.81 453.84C557.991 460.502 547.242 464.11 536.19 464.12C514.19 464.12 492.59 449.64 492.59 420.78C492.59 393.16 512.34 376.4 536.45 376.4C547 376.4 557.91 379.66 565.67 385.56L557.44 399.26C551.65 395.544 544.929 393.537 538.05 393.47C523.15 393.47 512.19 404.23 512.19 420.21C512.19 436.19 523 447 537.84 447C544.815 446.934 551.615 444.812 557.39 440.9L566.81 453.84Z" fill="#01E590"/>
<path d="M572.92 378.12H587.71V352.21L607.21 348.59V378.12H627.81V394.72H607.21V428.44C607.21 443.34 614.09 445.98 625.52 448.25L623.19 464.12C605.71 464.12 587.71 456.41 587.71 434.23V394.72H572.92V378.12Z" fill="#01E590"/>
<path d="M714.579 464.119C703.929 464.119 694.309 460.339 693.579 451.599C687.889 460.399 677.029 464.169 666.579 464.169C650.239 464.169 636.529 454.859 636.529 438.169C636.529 421.719 649.719 410.499 673.149 410.499C679.476 410.56 685.781 411.23 691.979 412.499V408.209C691.979 396.879 683.859 392.589 672.739 392.589C664.313 392.675 656.03 394.784 648.589 398.739L642.589 385.609C651.899 378.939 664.769 376.449 676.049 376.449C698.599 376.449 711.219 386.329 711.219 406.089V437.849C711.219 444.469 712.509 447.669 716.909 450.049L714.579 464.119ZM675.219 424.499C661.459 424.499 655.309 429.159 655.309 436.969C655.309 445.399 662.309 448.649 669.529 448.649C679.819 448.649 691.929 441.929 691.929 431.649V426.319C686.434 425.154 680.837 424.531 675.219 424.459V424.499Z" fill="#01E590"/>
<path d="M305 147.753C340.58 112.873 399.92 114.853 434.61 152.253C467.68 187.903 466.9 248.253 432.37 277.913L418.53 262.083C431.74 246.033 439.08 226.913 435.83 204.873C433.659 189.02 425.959 174.444 414.09 163.713C388.09 139.833 354.29 139.713 319.45 163.403L305 147.753Z" fill="url(#paint0_linear_443_6)"/>
<path d="M374.341 248.874C394.731 240.874 403.771 228.204 401.341 209.874C399.251 194.044 386.711 181.934 370.441 180.014C353.211 178.014 339.641 188.424 332.611 209.094C332.148 210.218 331.61 211.311 331.001 212.364H311.231C309.611 184.284 334.561 158.784 364.231 157.564C397.231 156.204 424.341 181.734 424.581 214.334C424.811 245.404 404.231 271.634 373.361 271.194L374.341 248.874Z" fill="url(#paint1_linear_443_6)"/>
<path d="M492.791 212.394H472.091C464.531 151.534 430.471 117.584 369.561 109.784V90.1338C426.121 79.2838 496.241 148.284 492.791 212.394Z" fill="url(#paint2_linear_443_6)"/>
<defs>
<linearGradient id="paint0_linear_443_6" x1="305" y1="200.373" x2="458.85" y2="200.373" gradientUnits="userSpaceOnUse">
<stop stop-color="#01E390"/>
<stop offset="0.34" stop-color="#01A976"/>
<stop offset="0.64" stop-color="#007D63"/>
<stop offset="0.87" stop-color="#006257"/>
<stop offset="1" stop-color="#005853"/>
</linearGradient>
<linearGradient id="paint1_linear_443_6" x1="311.161" y1="214.374" x2="424.531" y2="214.374" gradientUnits="userSpaceOnUse">
<stop stop-color="#01E390"/>
<stop offset="0.34" stop-color="#01A976"/>
<stop offset="0.64" stop-color="#007D63"/>
<stop offset="0.87" stop-color="#006257"/>
<stop offset="1" stop-color="#005853"/>
</linearGradient>
<linearGradient id="paint2_linear_443_6" x1="369.561" y1="150.694" x2="492.911" y2="150.694" gradientUnits="userSpaceOnUse">
<stop stop-color="#01E390"/>
<stop offset="0.34" stop-color="#01A976"/>
<stop offset="0.64" stop-color="#007D63"/>
<stop offset="0.87" stop-color="#006257"/>
<stop offset="1" stop-color="#005853"/>
</linearGradient>
</defs>
</svg>
